<?xml version="1.0" encoding="UTF-8" standalone="no"?>
<!-- Created with Inkscape (http://www.inkscape.org/) -->

<svg
   xmlns:dc="http://purl.org/dc/elements/1.1/"
   xmlns:cc="http://creativecommons.org/ns#"
   xmlns:rdf="http://www.w3.org/1999/02/22-rdf-syntax-ns#"
   xmlns:svg="http://www.w3.org/2000/svg"
   xmlns="http://www.w3.org/2000/svg"
   xmlns:sodipodi="http://sodipodi.sourceforge.net/DTD/sodipodi-0.dtd"
   xmlns:inkscape="http://www.inkscape.org/namespaces/inkscape"
   width="62.924473mm"
   height="66.61515mm"
   viewBox="0 0 62.924473 66.61515"
   version="1.1"
   id="svg8"
   inkscape:version="0.92.3 (2405546, 2018-03-11)"
   sodipodi:docname="moovie.svg">
  <defs
     id="defs2" />
  <sodipodi:namedview
     id="base"
     pagecolor="#ffffff"
     bordercolor="#666666"
     borderopacity="1.0"
     inkscape:pageopacity="0.0"
     inkscape:pageshadow="2"
     inkscape:zoom="0.98994949"
     inkscape:cx="337.99109"
     inkscape:cy="156.5664"
     inkscape:document-units="mm"
     inkscape:current-layer="svg8"
     showgrid="false"
     fit-margin-left="0.2"
     fit-margin-right="0.2"
     fit-margin-bottom="0.2"
     fit-margin-top="0.2"
     inkscape:window-width="1920"
     inkscape:window-height="1154"
     inkscape:window-x="1280"
     inkscape:window-y="0"
     inkscape:window-maximized="1" />
  <metadata
     id="metadata5">
    <rdf:RDF>
      <cc:Work
         rdf:about="">
        <dc:format>image/svg+xml</dc:format>
        <dc:type
           rdf:resource="http://purl.org/dc/dcmitype/StillImage" />
        <dc:title></dc:title>
      </cc:Work>
    </rdf:RDF>
  </metadata>
  <g
     inkscape:label="Layer 1"
     inkscape:groupmode="layer"
     id="layer1"
     transform="translate(-70.65999,-36.005514)">
    <g
       id="g898"
       transform="translate(-7.6839989,-10.991459)">
      <path
         style="fill:#000000;fill-opacity:1;stroke:none;stroke-width:0.21709402"
         d="m 78.598958,80.359558 0.05497,-33.052565 31.207262,-0.05501 31.20727,-0.05501 V 80.304548 113.41212 H 109.80622 78.543989 Z m 7.978901,24.151712 v -4.776071 h -1.953846 -1.953846 v 4.776071 4.77607 h 1.953846 1.953846 z m 8.249573,0 v -4.776071 h -2.062394 -2.062393 v 4.776071 4.77607 h 2.062393 2.062394 z m 8.249568,0 v -4.776071 h -2.06239 -2.062392 v 4.776071 4.77607 h 2.062392 2.06239 z m 8.46667,0 v -4.776071 h -2.17094 -2.17094 v 4.776071 4.77607 h 2.17094 2.17094 z m 8.46667,0 v -4.776071 h -2.17094 -2.17094 v 4.776071 4.77607 h 2.17094 2.17094 z m 8.46666,0 v -4.776071 h -2.27948 -2.27949 v 4.776071 4.77607 h 2.27949 2.27948 z m 8.68377,0 v -4.776071 h -2.27949 -2.27949 v 4.776071 4.77607 h 2.27949 2.27949 z m 0,-24.205986 V 63.697591 h -27.2453 -27.245303 v 16.607693 16.607693 h 27.245303 27.2453 z m -45.589749,0 v -15.95641 l 5.26453,0.0012 5.264529,0.0012 3.55983,8.411214 c 1.9579,4.626167 3.62112,8.482046 3.69603,8.568616 0.0749,0.08657 1.78634,-3.699004 3.80317,-8.412393 l 3.66695,-8.569781 h 5.17419 5.17419 v 15.95641 15.95641 h -3.79914 -3.79915 V 84.610981 c 0,-6.40789 -0.0733,-11.578724 -0.16282,-11.490741 -0.0896,0.08798 -1.77619,3.938689 -3.74808,8.557124 l -3.58526,8.397151 -2.60534,0.06055 -2.60534,0.06055 -3.68718,-8.635761 -3.687177,-8.635762 -0.05616,11.668804 -0.05616,11.668803 H 95.476828 91.571021 Z M 86.577859,56.099301 v -4.776069 h -1.953846 -1.953846 v 4.776069 4.776068 h 1.953846 1.953846 z m 8.249573,0 v -4.776069 h -2.062394 -2.062393 v 4.776069 4.776068 h 2.062393 2.062394 z m 8.249568,0 v -4.776069 h -2.06239 -2.062392 v 4.776069 4.776068 h 2.062392 2.06239 z m 8.46667,0 v -4.776069 h -2.17094 -2.17094 v 4.776069 4.776068 h 2.17094 2.17094 z m 8.46667,0 v -4.776069 h -2.17094 -2.17094 v 4.776069 4.776068 h 2.17094 2.17094 z m 8.46666,0 v -4.776069 h -2.27948 -2.27949 v 4.776069 4.776068 h 2.27949 2.27948 z m 8.68377,0 v -4.776069 h -2.27949 -2.27949 v 4.776069 4.776068 h 2.27949 2.27949 z"
         id="path900"
         inkscape:connector-curvature="0" />
    </g>
  </g>
</svg>
